<?xml version="1.0" encoding="UTF-8" standalone="no"?>
<svg
   clip-rule="evenodd"
   fill-rule="evenodd"
   stroke-linejoin="round"
   stroke-miterlimit="2"
   viewBox="0 0 24 24"
   version="1.1"
   id="svg5"
   sodipodi:docname="apc.svg"
   width="24"
   height="24"
   inkscape:version="1.3.2 (091e20e, 2023-11-25)"
   xmlns:inkscape="http://www.inkscape.org/namespaces/inkscape"
   xmlns:sodipodi="http://sodipodi.sourceforge.net/DTD/sodipodi-0.dtd"
   xmlns="http://www.w3.org/2000/svg"
   xmlns:svg="http://www.w3.org/2000/svg">
  <defs
     id="defs5" />
  <sodipodi:namedview
     id="namedview5"
     pagecolor="#ffffff"
     bordercolor="#000000"
     borderopacity="0.25"
     inkscape:showpageshadow="2"
     inkscape:pageopacity="0.0"
     inkscape:pagecheckerboard="0"
     inkscape:deskcolor="#d1d1d1"
     inkscape:zoom="24.714286"
     inkscape:cx="13.635838"
     inkscape:cy="8.1531791"
     inkscape:window-width="1392"
     inkscape:window-height="1014"
     inkscape:window-x="2091"
     inkscape:window-y="25"
     inkscape:window-maximized="0"
     inkscape:current-layer="svg5" />
  <g
     fill="currentColor"
     id="g5"
     transform="matrix(0.06388889,0,0,0.07644286,-5.3024531,-3.288572)">
    <path
       d="M 160.944,245.974 148.86,224.43 h 43.658 l -21.933,-46.443 -32.136,67.987 H 100 l 50.338,-91.771 h 40.499 l 49.975,91.771 z"
       id="path1" />
    <path
       d="m 241.006,192.661 h 47.922 c 12.084,0 16.905,-0.748 16.905,-9.291 0,-8.18 -3.904,-9.106 -16.356,-9.106 h -48.665 l -10.779,-20.061 h 67.624 c 31.964,0 43.845,13.939 43.845,28.795 0,14.311 -10.96,30.096 -46.067,30.096 h -15.984 v 32.88 h -38.639 v -53.313 z"
       id="path2" />
    <path
       d="m 441.642,239.104 c -11.526,5.387 -25.832,7.99 -41.064,7.99 -46.071,0 -61.865,-25.639 -61.865,-46.815 0,-26.745 23.407,-47.373 63.728,-47.373 14.67,0 27.489,2.223 38.263,6.313 v 26.568 c -11.137,-5.941 -20.804,-8.548 -32.141,-8.548 -19.317,0 -35.111,8.729 -35.111,22.659 0,13.753 16.166,22.673 35.483,22.673 11.155,0 20.251,-2.227 32.707,-7.99 z"
       id="path3" />
    <path
       id="path4"
       d="" />
  </g>
</svg>
