<?xml version="1.0" encoding="UTF-8"?>
<svg id="Layer_1" data-name="Layer 1" xmlns="http://www.w3.org/2000/svg" viewBox="0 0 960 960">
  <defs>
    <style>
      .cls-1 {
        fill: #212121;
        stroke-width: 0px;
      }
    </style>
  </defs>
  <g>
    <rect class="cls-1" x="49.12" y="655.11" width="103.45" height="15.35"/>
    <rect class="cls-1" x="49.12" y="693.42" width="103.31" height="15.35"/>
    <rect class="cls-1" x="49.12" y="731.73" width="103.31" height="15.35"/>
  </g>
  <g>
    <rect class="cls-1" x="50.98" y="213.01" width="406.47" height="60.32"/>
    <rect class="cls-1" x="50.98" y="363.53" width="405.9" height="60.32"/>
    <rect class="cls-1" x="50.98" y="514.05" width="405.9" height="60.32"/>
  </g>
  <path class="cls-1" d="M263.91,670.6l-36.87.14c-24.68,0-36.3,10.04-36.3,30.42s11.62,30.56,36.16,30.56h51.65v15.21l-51.65.14c-34.44,0-51.65-15.21-51.65-45.63s17.07-45.77,51.22-45.91h52.23v15.35c0-.29-14.78-.29-14.78-.29Z"/>
  <path class="cls-1" d="M352.87,655.4c-34.15.14-51.22,15.35-51.37,45.91,0,30.42,17.22,45.63,51.65,45.63s51.65-15.21,51.65-45.77-17.22-45.77-51.94-45.77ZM353.15,731.73c-24.68,0-36.01-10.19-36.01-30.56s11.33-30.42,36.01-30.42,36.16,10.04,36.16,30.42-11.48,30.56-36.16,30.56Z"/>
  <path class="cls-1" d="M895.22,655.4v76.19h-29.56v-76.33h-14.78v76.33h-29.56v-76.47h-14.78v91.83h88.67c11.05,0,14.78-5.88,14.78-15.21v-76.47l-14.78.14h0Z"/>
  <path class="cls-1" d="M657.48,731.73h-77.62c-6.03,0-11.05-4.88-11.05-11.05v-65.43h-14.63v69.44c0,12.34,9.9,22.24,22.24,22.24h81.07v-15.21h0Z"/>
  <path class="cls-1" d="M731.51,655.4c-34.15.14-51.22,15.35-51.37,45.91,0,30.42,17.22,45.63,51.65,45.63s51.65-15.21,51.65-45.77-17.22-45.77-51.94-45.77ZM731.94,731.73c-24.68,0-36.01-10.19-36.01-30.56s11.33-30.42,36.01-30.42,36.16,10.04,36.16,30.42-11.62,30.56-36.16,30.56Z"/>
  <g>
    <rect class="cls-1" x="431.21" y="655.11" width="101.58" height="14.49"/>
    <polygon class="cls-1" points="532.79 709.06 445.7 709.06 445.7 746.94 431.21 746.94 431.21 693.7 532.79 693.7 532.79 709.06 532.79 709.06"/>
  </g>
  <g>
    <rect class="cls-1" x="510.86" y="213.29" width="399.14" height="56.94"/>
    <polygon class="cls-1" points="910 425.26 567.8 425.26 567.8 574.09 510.86 574.09 510.86 364.94 910 364.94 910 425.26 910 425.26"/>
  </g>
</svg>